<svg width="18" height="18" viewBox="0 0 18 18" fill="none" xmlns="http://www.w3.org/2000/svg">
<path d="M4.80012 3.57062C5.91786 2.47524 7.42272 1.86522 8.98769 1.87312C10.5527 1.88103 12.0513 2.50622 13.1579 3.61283C14.2645 4.71945 14.8897 6.21807 14.8976 7.78305C14.9055 9.34802 14.2955 10.8529 13.2001 11.9706L10.0606 15.1101C9.77933 15.3913 9.39786 15.5493 9.00012 15.5493C8.60237 15.5493 8.22091 15.3913 7.93962 15.1101L4.80012 11.9706C3.68628 10.8567 3.06055 9.3459 3.06055 7.77062C3.06055 6.19534 3.68628 4.68457 4.80012 3.57062Z" stroke="#656565" stroke-width="1.5" stroke-linejoin="round"/>
<path d="M9 10.0215C10.2426 10.0215 11.25 9.01412 11.25 7.77148C11.25 6.52884 10.2426 5.52148 9 5.52148C7.75736 5.52148 6.75 6.52884 6.75 7.77148C6.75 9.01412 7.75736 10.0215 9 10.0215Z" stroke="#656565" stroke-width="1.5" stroke-linecap="round" stroke-linejoin="round"/>
</svg>
