<svg width="30" height="30" viewBox="0 0 30 30" fill="none" xmlns="http://www.w3.org/2000/svg">
<rect width="30" height="30" rx="5" fill="#EB9100" fill-opacity="0.69"/>
<path d="M15.0006 8.77585V16.376C14.165 15.896 13.1339 15.7093 12.0405 16.0915C10.8494 16.5182 9.93383 17.576 9.7205 18.8204C9.62187 19.3804 9.65873 19.9558 9.828 20.4986C9.99726 21.0414 10.294 21.5358 10.6934 21.9405C11.0929 22.3451 11.5834 22.6482 12.1239 22.8245C12.6645 23.0008 13.2394 23.0452 13.8006 22.9538C15.5428 22.6783 16.7784 21.0782 16.7784 19.3093V10.5537H18.5562C19.534 10.5537 20.334 9.75364 20.334 8.77585C20.334 7.79806 19.534 6.99805 18.5562 6.99805H16.7784C15.8006 6.99805 15.0006 7.79806 15.0006 8.77585Z" fill="white"/>
</svg>
