<svg width="23" height="23" viewBox="0 0 23 23" fill="none" xmlns="http://www.w3.org/2000/svg">
<path d="M2.875 9.58268C2.875 5.96881 2.875 4.16139 3.99817 3.03918C5.12133 1.91697 6.92779 1.91602 10.5417 1.91602H12.4583C16.0722 1.91602 17.8796 1.91602 19.0018 3.03918C20.124 4.16235 20.125 5.96881 20.125 9.58268V13.416C20.125 17.0299 20.125 18.8373 19.0018 19.9595C17.8787 21.0817 16.0722 21.0827 12.4583 21.0827H10.5417C6.92779 21.0827 5.12037 21.0827 3.99817 19.9595C2.87596 18.8363 2.875 17.0299 2.875 13.416V9.58268Z" stroke="#616161" stroke-width="1.4375"/>
<path d="M7.66675 9.58203H15.3334M7.66675 13.4154H12.4584" stroke="#616161" stroke-width="1.4375" stroke-linecap="round"/>
</svg>
