<svg width="23" height="31" viewBox="0 0 23 31" fill="none" xmlns="http://www.w3.org/2000/svg">
<path d="M11.0803 0L14.3929 7.75L22.1429 11.0714L22.1251 27.6786C22.1251 28.5595 21.7752 29.4043 21.1523 30.0272C20.5294 30.6501 19.6846 31 18.8037 31H3.32143C2.44053 31 1.59571 30.6501 0.972824 30.0272C0.349935 29.4043 0 28.5595 0 27.6786V3.32143C0 2.44053 0.349935 1.59571 0.972824 0.972824C1.59571 0.349935 2.44053 0 3.32143 0H11.0803Z" fill="url(#paint0_linear_2429_5478)"/>
<path d="M11.0803 0L14.3929 7.75L22.1429 11.0714L22.1251 27.6786C22.1251 28.5595 21.7752 29.4043 21.1523 30.0272C20.5294 30.6501 19.6846 31 18.8037 31H3.32143C2.44053 31 1.59571 30.6501 0.972824 30.0272C0.349935 29.4043 0 28.5595 0 27.6786V3.32143C0 2.44053 0.349935 1.59571 0.972824 0.972824C1.59571 0.349935 2.44053 0 3.32143 0H11.0803Z" fill="url(#paint1_radial_2429_5478)" fill-opacity="0.5"/>
<path d="M11.0693 7.75V0L22.1408 11.0714H14.3908C13.5099 11.0714 12.665 10.7215 12.0422 10.0986C11.4193 9.47571 11.0693 8.6309 11.0693 7.75Z" fill="url(#paint2_linear_2429_5478)"/>
<path d="M5.53781 15.5C5.24417 15.5 4.96257 15.6166 4.75494 15.8243C4.54731 16.0319 4.43066 16.3135 4.43066 16.6071C4.43066 16.9008 4.54731 17.1824 4.75494 17.39C4.96257 17.5976 5.24417 17.7143 5.53781 17.7143H16.6092C16.9029 17.7143 17.1845 17.5976 17.3921 17.39C17.5997 17.1824 17.7164 16.9008 17.7164 16.6071C17.7164 16.3135 17.5997 16.0319 17.3921 15.8243C17.1845 15.6166 16.9029 15.5 16.6092 15.5H5.53781ZM4.43066 21.0357C4.43066 20.7421 4.54731 20.4605 4.75494 20.2528C4.96257 20.0452 5.24417 19.9286 5.53781 19.9286H16.6092C16.9029 19.9286 17.1845 20.0452 17.3921 20.2528C17.5997 20.4605 17.7164 20.7421 17.7164 21.0357C17.7164 21.3293 17.5997 21.611 17.3921 21.8186C17.1845 22.0262 16.9029 22.1429 16.6092 22.1429H5.53781C5.24417 22.1429 4.96257 22.0262 4.75494 21.8186C4.54731 21.611 4.43066 21.3293 4.43066 21.0357ZM5.53781 24.3571C5.24417 24.3571 4.96257 24.4738 4.75494 24.6814C4.54731 24.889 4.43066 25.1707 4.43066 25.4643C4.43066 25.7579 4.54731 26.0395 4.75494 26.2472C4.96257 26.4548 5.24417 26.5714 5.53781 26.5714H16.6092C16.9029 26.5714 17.1845 26.4548 17.3921 26.2472C17.5997 26.0395 17.7164 25.7579 17.7164 25.4643C17.7164 25.1707 17.5997 24.889 17.3921 24.6814C17.1845 24.4738 16.9029 24.3571 16.6092 24.3571H5.53781Z" fill="url(#paint3_linear_2429_5478)" fill-opacity="0.9"/>
<defs>
<linearGradient id="paint0_linear_2429_5478" x1="15.4867" y1="9.61332e-08" x2="18.2989" y2="26.0865" gradientUnits="userSpaceOnUse">
<stop stop-color="#6CE0FF"/>
<stop offset="1" stop-color="#4894FE"/>
</linearGradient>
<radialGradient id="paint1_radial_2429_5478" cx="0" cy="0" r="1" gradientUnits="userSpaceOnUse" gradientTransform="translate(23.0467 0.966671) rotate(130.372) scale(18.5009 10.7937)">
<stop offset="0.362" stop-color="#4A43CB"/>
<stop offset="1" stop-color="#4A43CB" stop-opacity="0"/>
</radialGradient>
<linearGradient id="paint2_linear_2429_5478" x1="16.5873" y1="4.61236" x2="13.8195" y2="9.22693" gradientUnits="userSpaceOnUse">
<stop stop-color="#9FF0F9"/>
<stop offset="1" stop-color="#B3E0FF"/>
</linearGradient>
<linearGradient id="paint3_linear_2429_5478" x1="17.7164" y1="31" x2="5.65518" y2="10.3562" gradientUnits="userSpaceOnUse">
<stop stop-color="#9DEAFF"/>
<stop offset="1" stop-color="white"/>
</linearGradient>
</defs>
</svg>
