<svg width="35" height="35" viewBox="0 0 35 35" fill="none" xmlns="http://www.w3.org/2000/svg">
<rect width="35" height="35" rx="5" fill="#00B978" fill-opacity="0.69"/>
<path d="M18.5 23.5L13.5 11.5L8.5 23.5M16.5 19.5H10.5M26.5 23.5V20.5M26.5 20.5V17.5M26.5 20.5C26.5 21.2956 26.1839 22.0587 25.6213 22.6213C25.0587 23.1839 24.2956 23.5 23.5 23.5C22.7044 23.5 21.9413 23.1839 21.3787 22.6213C20.8161 22.0587 20.5 21.2956 20.5 20.5C20.5 19.7044 20.8161 18.9413 21.3787 18.3787C21.9413 17.8161 22.7044 17.5 23.5 17.5C24.2956 17.5 25.0587 17.8161 25.6213 18.3787C26.1839 18.9413 26.5 19.7044 26.5 20.5Z" stroke="white" stroke-width="2" stroke-linecap="round" stroke-linejoin="round"/>
</svg>
