<svg width="30" height="30" viewBox="0 0 30 30" fill="none" xmlns="http://www.w3.org/2000/svg">
<path d="M4.28571 0C1.92188 0 0 1.92188 0 4.28571V25.7143C0 28.0781 1.92188 30 4.28571 30H25.7143C28.0781 30 30 28.0781 30 25.7143V4.28571C30 1.92188 28.0781 0 25.7143 0H4.28571ZM8.57143 5.35714C9.42391 5.35714 10.2415 5.69579 10.8443 6.29859C11.4471 6.90138 11.7857 7.71895 11.7857 8.57143C11.7857 9.42391 11.4471 10.2415 10.8443 10.8443C10.2415 11.4471 9.42391 11.7857 8.57143 11.7857C7.71895 11.7857 6.90138 11.4471 6.29859 10.8443C5.69579 10.2415 5.35714 9.42391 5.35714 8.57143C5.35714 7.71895 5.69579 6.90138 6.29859 6.29859C6.90138 5.69579 7.71895 5.35714 8.57143 5.35714ZM18.2143 12.8571C18.7768 12.8571 19.2924 13.1518 19.5871 13.6272L25.4799 23.2701C25.7812 23.7656 25.7946 24.3884 25.5134 24.8973C25.2321 25.4062 24.6897 25.7143 24.1071 25.7143H5.89286C5.29688 25.7143 4.74107 25.3795 4.46652 24.8504C4.19196 24.3214 4.23214 23.6786 4.57366 23.1897L8.32366 17.8326C8.625 17.404 9.11384 17.1496 9.64286 17.1496C10.1719 17.1496 10.6607 17.404 10.9621 17.8326L12.7299 20.3638L16.8415 13.6339C17.1362 13.1585 17.6518 12.8638 18.2143 12.8638V12.8571Z" fill="#FF0000" fill-opacity="0.66"/>
</svg>
