<svg width="18" height="18" viewBox="0 0 18 18" fill="none" xmlns="http://www.w3.org/2000/svg">
<g clip-path="url(#clip0_2855_6059)">
<path d="M9 16.5C7.9625 16.5 6.9875 16.303 6.075 15.909C5.1625 15.515 4.36875 14.9808 3.69375 14.3063C3.01875 13.6318 2.4845 12.838 2.091 11.925C1.6975 11.012 1.5005 10.037 1.5 9C1.4995 7.963 1.6965 6.988 2.091 6.075C2.4855 5.162 3.01975 4.36825 3.69375 3.69375C4.36775 3.01925 5.1615 2.485 6.075 2.091C6.9885 1.697 7.9635 1.5 9 1.5C9.4125 1.5 9.81875 1.53125 10.2188 1.59375C10.6188 1.65625 11.0063 1.75 11.3813 1.875C11.6688 1.975 11.85 2.122 11.925 2.316C12 2.51 12.0063 2.7005 11.9438 2.8875C11.8813 3.0745 11.7658 3.2215 11.5973 3.3285C11.4288 3.4355 11.238 3.44475 11.025 3.35625C10.7 3.24375 10.372 3.15625 10.041 3.09375C9.71 3.03125 9.363 3 9 3C7.3375 3 5.92175 3.5845 4.75275 4.7535C3.58375 5.9225 2.9995 7.338 3 9C3.0005 10.662 3.585 12.0778 4.7535 13.2473C5.922 14.4168 7.3375 15.001 9 15C10.6625 14.999 12.0783 14.4148 13.2473 13.2473C14.4163 12.0798 15.0005 10.664 15 9C15 8.775 14.9875 8.55 14.9625 8.325C14.9375 8.1 14.9 7.88125 14.85 7.66875C14.7875 7.43125 14.8188 7.2375 14.9438 7.0875C15.0688 6.9375 15.225 6.84375 15.4125 6.80625C15.6 6.76875 15.7845 6.797 15.966 6.891C16.1475 6.985 16.2693 7.163 16.3313 7.425C16.3938 7.675 16.4375 7.93125 16.4625 8.19375C16.4875 8.45625 16.5 8.725 16.5 9C16.5 10.0375 16.3033 11.0125 15.9098 11.925C15.5163 12.8375 14.9818 13.6313 14.3063 14.3063C13.6308 14.9813 12.837 15.5158 11.925 15.9098C11.013 16.3038 10.038 16.5005 9 16.5ZM15 3.75H14.25C14.0375 3.75 13.8595 3.678 13.716 3.534C13.5725 3.39 13.5005 3.212 13.5 3C13.4995 2.788 13.5715 2.61 13.716 2.466C13.8605 2.322 14.0385 2.25 14.25 2.25H15V1.5C15 1.2875 15.072 1.1095 15.216 0.966003C15.36 0.822503 15.538 0.750503 15.75 0.750003C15.962 0.749503 16.1403 0.821503 16.2848 0.966003C16.4293 1.1105 16.501 1.2885 16.5 1.5V2.25H17.25C17.4625 2.25 17.6408 2.322 17.7848 2.466C17.9288 2.61 18.0005 2.788 18 3C17.9995 3.212 17.9275 3.39025 17.784 3.53475C17.6405 3.67925 17.4625 3.751 17.25 3.75H16.5V4.5C16.5 4.7125 16.428 4.89075 16.284 5.03475C16.14 5.17875 15.962 5.2505 15.75 5.25C15.538 5.2495 15.36 5.1775 15.216 5.034C15.072 4.8905 15 4.7125 15 4.5V3.75ZM11.625 8.25C11.9375 8.25 12.2033 8.14075 12.4223 7.92225C12.6413 7.70375 12.7505 7.438 12.75 7.125C12.7495 6.812 12.6403 6.5465 12.4223 6.3285C12.2043 6.1105 11.9385 6.001 11.625 6C11.3115 5.999 11.046 6.1085 10.8285 6.3285C10.611 6.5485 10.5015 6.814 10.5 7.125C10.4985 7.436 10.608 7.70175 10.8285 7.92225C11.049 8.14275 11.3145 8.252 11.625 8.25ZM6.375 8.25C6.6875 8.25 6.95325 8.14075 7.17225 7.92225C7.39125 7.70375 7.5005 7.438 7.5 7.125C7.4995 6.812 7.39025 6.5465 7.17225 6.3285C6.95425 6.1105 6.6885 6.001 6.375 6C6.0615 5.999 5.796 6.1085 5.5785 6.3285C5.361 6.5485 5.2515 6.814 5.25 7.125C5.2485 7.436 5.358 7.70175 5.5785 7.92225C5.799 8.14275 6.0645 8.252 6.375 8.25ZM9 13.125C9.725 13.125 10.3938 12.95 11.0063 12.6C11.6188 12.25 12.1125 11.775 12.4875 11.175C12.5625 11.025 12.5563 10.875 12.4688 10.725C12.3813 10.575 12.25 10.5 12.075 10.5H5.925C5.75 10.5 5.61875 10.575 5.53125 10.725C5.44375 10.875 5.4375 11.025 5.5125 11.175C5.8875 11.775 6.3845 12.25 7.0035 12.6C7.6225 12.95 8.288 13.125 9 13.125Z" fill="#656565"/>
</g>
<defs>
<clipPath id="clip0_2855_6059">
<rect width="18" height="18" fill="white"/>
</clipPath>
</defs>
</svg>
