<svg width="15" height="15" viewBox="0 0 15 15" fill="none" xmlns="http://www.w3.org/2000/svg">
<g clip-path="url(#clip0_2855_6014)">
<path d="M12.9953 9.87349L13.0282 11.6203C13.0319 11.7824 13.0017 11.9435 12.9396 12.0933C12.8774 12.2431 12.7846 12.3783 12.6672 12.4902C12.5498 12.6021 12.4103 12.6882 12.2576 12.743C12.105 12.7979 11.9426 12.8202 11.7808 12.8087C9.98547 12.6477 8.25288 12.0679 6.72229 11.1158C5.29863 10.2483 4.08341 9.07806 3.16296 7.68807C2.15032 6.18762 1.50537 4.46973 1.28034 2.67358C1.26276 2.51284 1.27884 2.3502 1.32756 2.19602C1.37627 2.04184 1.45656 1.89948 1.56331 1.77803C1.67005 1.65657 1.80092 1.55868 1.94758 1.49057C2.09423 1.42246 2.25346 1.38564 2.41512 1.38244L4.16189 1.34954C4.44441 1.34143 4.72024 1.43634 4.93796 1.61656C5.15569 1.79678 5.30045 2.05002 5.34527 2.32908C5.42952 2.8867 5.57659 3.43299 5.78366 3.95754C5.86593 4.16447 5.88715 4.39064 5.84481 4.60926C5.80248 4.82788 5.69836 5.02978 5.54479 5.19104L4.81925 5.94443C5.67558 7.38652 6.90528 8.57074 8.37859 9.37216L9.10413 8.61877C9.25949 8.45924 9.45732 8.34759 9.67419 8.29705C9.89106 8.24651 10.1179 8.2592 10.3278 8.33361C10.8597 8.52078 11.4112 8.64717 11.9716 8.71037C12.2552 8.74495 12.5162 8.88254 12.7049 9.097C12.8937 9.31145 12.997 9.5878 12.9953 9.87349Z" stroke="#595959" stroke-linecap="round" stroke-linejoin="round"/>
</g>
<defs>
<clipPath id="clip0_2855_6014">
<rect width="13.9766" height="13.9766" fill="white" transform="translate(0 0.263672) rotate(-1.0791)"/>
</clipPath>
</defs>
</svg>
