<svg width="18" height="18" viewBox="0 0 18 18" fill="none" xmlns="http://www.w3.org/2000/svg">
<path d="M3.9375 5.625C3.78832 5.625 3.64524 5.68426 3.53975 5.78975C3.43426 5.89524 3.375 6.03832 3.375 6.1875C3.375 6.33668 3.43426 6.47976 3.53975 6.58525C3.64524 6.69074 3.78832 6.75 3.9375 6.75H11.8125C11.9617 6.75 12.1048 6.69074 12.2102 6.58525C12.3157 6.47976 12.375 6.33668 12.375 6.1875C12.375 6.03832 12.3157 5.89524 12.2102 5.78975C12.1048 5.68426 11.9617 5.625 11.8125 5.625H3.9375ZM3.9375 7.875C3.78832 7.875 3.64524 7.93426 3.53975 8.03975C3.43426 8.14524 3.375 8.28832 3.375 8.4375V10.6875C3.375 10.8367 3.43426 10.9798 3.53975 11.0852C3.64524 11.1907 3.78832 11.25 3.9375 11.25H6.1875C6.33668 11.25 6.47976 11.1907 6.58525 11.0852C6.69074 10.9798 6.75 10.8367 6.75 10.6875V8.4375C6.75 8.28832 6.69074 8.14524 6.58525 8.03975C6.47976 7.93426 6.33668 7.875 6.1875 7.875H3.9375ZM4.5 10.125V9H5.625V10.125H4.5ZM8.4375 7.875C8.28832 7.875 8.14524 7.93426 8.03975 8.03975C7.93426 8.14524 7.875 8.28832 7.875 8.4375C7.875 8.58668 7.93426 8.72976 8.03975 8.83525C8.14524 8.94074 8.28832 9 8.4375 9H11.8125C11.9617 9 12.1048 8.94074 12.2102 8.83525C12.3157 8.72976 12.375 8.58668 12.375 8.4375C12.375 8.28832 12.3157 8.14524 12.2102 8.03975C12.1048 7.93426 11.9617 7.875 11.8125 7.875H8.4375ZM8.4375 10.125C8.28832 10.125 8.14524 10.1843 8.03975 10.2898C7.93426 10.3952 7.875 10.5383 7.875 10.6875C7.875 10.8367 7.93426 10.9798 8.03975 11.0852C8.14524 11.1907 8.28832 11.25 8.4375 11.25H11.8125C11.9617 11.25 12.1048 11.1907 12.2102 11.0852C12.3157 10.9798 12.375 10.8367 12.375 10.6875C12.375 10.5383 12.3157 10.3952 12.2102 10.2898C12.1048 10.1843 11.9617 10.125 11.8125 10.125H8.4375ZM1.125 4.5C1.125 3.90326 1.36205 3.33097 1.78401 2.90901C2.20597 2.48705 2.77826 2.25 3.375 2.25H12.375C12.9717 2.25 13.544 2.48705 13.966 2.90901C14.3879 3.33097 14.625 3.90326 14.625 4.5C15.2217 4.5 15.794 4.73705 16.216 5.15901C16.6379 5.58097 16.875 6.15326 16.875 6.75V11.8125C16.875 12.5584 16.5787 13.2738 16.0512 13.8012C15.5238 14.3287 14.8084 14.625 14.0625 14.625H3.9375C3.19158 14.625 2.47621 14.3287 1.94876 13.8012C1.42132 13.2738 1.125 12.5584 1.125 11.8125V4.5ZM14.0625 11.8125C13.9133 11.8125 13.7702 11.7532 13.6648 11.6477C13.5593 11.5423 13.5 11.3992 13.5 11.25V4.5C13.5 4.20163 13.3815 3.91548 13.1705 3.7045C12.9595 3.49353 12.6734 3.375 12.375 3.375H3.375C3.07663 3.375 2.79048 3.49353 2.5795 3.7045C2.36853 3.91548 2.25 4.20163 2.25 4.5V11.8125C2.25 12.2601 2.42779 12.6893 2.74426 13.0057C3.06072 13.3222 3.48995 13.5 3.9375 13.5H14.0625C14.5101 13.5 14.9393 13.3222 15.2557 13.0057C15.5722 12.6893 15.75 12.2601 15.75 11.8125V6.75C15.75 6.45163 15.6315 6.16548 15.4205 5.9545C15.2095 5.74353 14.9234 5.625 14.625 5.625V11.25C14.625 11.3992 14.5657 11.5423 14.4602 11.6477C14.3548 11.7532 14.2117 11.8125 14.0625 11.8125Z" fill="#656565"/>
</svg>
