<svg width="20" height="20" viewBox="0 0 20 20" fill="none" xmlns="http://www.w3.org/2000/svg">
<path d="M10.0476 0.500977C11.2386 0.497275 12.4183 0.729935 13.5183 1.18652C14.6189 1.64341 15.6182 2.31442 16.4568 3.16113H16.4558C18.1641 4.87001 19.1062 7.14697 19.1062 9.56738C19.1062 14.5589 15.0391 18.6259 10.0476 18.626C8.597 18.626 7.17228 18.2744 5.89233 17.6133L1.54663 18.7568L0.709717 18.9766L0.937256 18.1416L2.09253 13.8975C1.37316 12.5729 0.989014 11.0867 0.989014 9.55859C0.989072 4.56763 5.05489 0.501937 10.0457 0.500977H10.0466H10.0476Z" stroke="#249F62"/>
<g clip-path="url(#clip0_2855_6008)">
<path d="M14.1692 11.7234L14.1905 12.8567C14.1929 12.9619 14.1733 13.0665 14.133 13.1637C14.0927 13.2609 14.0325 13.3486 13.9563 13.4212C13.8801 13.4937 13.7896 13.5496 13.6906 13.5852C13.5915 13.6208 13.4862 13.6353 13.3812 13.6278C12.2164 13.5234 11.0922 13.1472 10.0992 12.5294C9.17549 11.9666 8.38705 11.2073 7.78984 10.3055C7.13283 9.33199 6.71438 8.2174 6.56838 7.05204C6.55698 6.94775 6.56741 6.84223 6.59902 6.74219C6.63062 6.64216 6.68272 6.5498 6.75197 6.471C6.82123 6.3922 6.90614 6.32868 7.00129 6.28449C7.09644 6.2403 7.19975 6.21641 7.30464 6.21433L8.43796 6.19299C8.62127 6.18773 8.80023 6.2493 8.94149 6.36623C9.08275 6.48316 9.17667 6.64747 9.20575 6.82853C9.26042 7.19031 9.35584 7.54475 9.49019 7.88509C9.54356 8.01935 9.55733 8.16609 9.52986 8.30793C9.50239 8.44977 9.43484 8.58077 9.3352 8.68539L8.86447 9.1742C9.42006 10.1098 10.2179 10.8782 11.1738 11.3982L11.6445 10.9093C11.7453 10.8058 11.8737 10.7334 12.0144 10.7006C12.1551 10.6678 12.3023 10.6761 12.4384 10.7243C12.7836 10.8458 13.1414 10.9278 13.505 10.9688C13.689 10.9912 13.8583 11.0805 13.9808 11.2196C14.1032 11.3588 14.1703 11.5381 14.1692 11.7234Z" stroke="#249F62" stroke-linecap="round" stroke-linejoin="round"/>
</g>
<defs>
<clipPath id="clip0_2855_6008">
<rect width="9.06818" height="9.06818" fill="white" transform="translate(5.73779 5.48828) rotate(-1.0791)"/>
</clipPath>
</defs>
</svg>
