<svg width="18" height="18" viewBox="0 0 18 18" fill="none" xmlns="http://www.w3.org/2000/svg">
<path d="M12 5.25C12 3.8355 12 3.129 11.5605 2.6895C11.121 2.25 10.4145 2.25 9 2.25C7.5855 2.25 6.879 2.25 6.4395 2.6895C6 3.129 6 3.8355 6 5.25M1.5 10.5C1.5 8.39325 1.5 7.34025 2.0055 6.5835C2.22443 6.25579 2.50579 5.97443 2.8335 5.7555C3.59025 5.25 4.6425 5.25 6.75 5.25H11.25C13.3568 5.25 14.4098 5.25 15.1665 5.7555C15.4942 5.97443 15.7756 6.25579 15.9945 6.5835C16.5 7.34025 16.5 8.3925 16.5 10.5C16.5 12.6075 16.5 13.6598 15.9945 14.4165C15.7756 14.7442 15.4942 15.0256 15.1665 15.2445C14.4098 15.75 13.3575 15.75 11.25 15.75H6.75C4.64325 15.75 3.59025 15.75 2.8335 15.2445C2.50579 15.0256 2.22443 14.7442 2.0055 14.4165C1.5 13.6598 1.5 12.6075 1.5 10.5Z" stroke="#656565" stroke-width="1.125" stroke-linecap="round" stroke-linejoin="round"/>
<path d="M4.5 8.25L4.989 8.4015C7.60333 9.20039 10.3967 9.20039 13.011 8.4015L13.5 8.25M9 9V10.5" stroke="#656565" stroke-width="1.125" stroke-linecap="round" stroke-linejoin="round"/>
</svg>
